<svg width="71" height="26" viewBox="0 0 71 26" fill="none" xmlns="http://www.w3.org/2000/svg">
<g clip-path="url(#clip0_7183_4584)">
<path d="M13.1592 22.3032C13.1393 22.3062 13.119 22.3062 13.099 22.3032C13.0497 22.2856 13.0032 22.2625 12.9539 22.2435C12.733 22.155 12.4945 22.1184 12.257 22.1365C12.0195 22.1547 11.7895 22.227 11.5849 22.3479C11.5507 22.3669 11.5178 22.39 11.485 22.409C11.4521 22.428 11.4179 22.409 11.4165 22.3764C11.4165 22.3113 11.4165 22.2462 11.4165 22.1811C11.4165 20.6975 11.4165 19.2133 11.4165 17.7288C11.4165 17.6569 11.4165 17.5864 11.4069 17.5158C11.4069 17.5064 11.3919 17.4955 11.3809 17.4914C11.3754 17.4889 11.3693 17.4876 11.3631 17.4876C11.357 17.4876 11.3509 17.4889 11.3453 17.4914C11.3056 17.5348 11.2673 17.5796 11.2317 17.6271C11.099 17.797 10.9568 17.9595 10.806 18.1139C10.1383 18.7962 9.2945 19.284 8.36646 19.5244C8.08098 19.6 7.7905 19.6557 7.49716 19.6912C7.09344 19.7449 6.68591 19.7653 6.27877 19.7522C6.04331 19.7427 5.80785 19.7224 5.57238 19.6898C5.15615 19.6336 4.74752 19.5317 4.354 19.386C3.56969 19.0924 2.86621 18.6199 2.30054 18.0068C1.75994 17.4259 1.33247 16.7509 1.03972 16.0159C0.846501 15.5388 0.7007 15.0442 0.604383 14.539C0.5551 14.2832 0.5154 14.0264 0.485282 13.7687C0.433173 13.3358 0.408483 12.9 0.411358 12.4641C0.411358 12.3013 0.411358 12.1386 0.411358 11.9758C0.409874 11.8325 0.418565 11.6893 0.437368 11.5473C0.438712 11.5215 0.438712 11.4957 0.437368 11.47C0.45844 11.1453 0.497745 10.822 0.5551 10.5017C0.620926 10.1039 0.715631 9.71142 0.838477 9.32719C1.04911 8.66167 1.35771 8.03057 1.75432 7.4543C2.26124 6.70405 2.91994 6.06628 3.68868 5.58141C4.26733 5.21915 4.90521 4.95941 5.57375 4.8138C5.80511 4.76227 6.03647 4.7243 6.27193 4.69582C6.67105 4.65329 7.07284 4.6406 7.47389 4.65784C7.92056 4.67115 8.36405 4.73716 8.79495 4.85449C9.72907 5.09652 10.561 5.62714 11.1701 6.36935C11.2112 6.41953 11.2509 6.47106 11.2933 6.5226C11.3096 6.54294 11.328 6.56157 11.3481 6.5782C11.3597 6.58159 11.3721 6.58159 11.3837 6.5782C11.3872 6.57864 11.3908 6.57828 11.3941 6.57714C11.3975 6.576 11.4005 6.57412 11.4031 6.57163C11.4056 6.56915 11.4075 6.56612 11.4086 6.5628C11.4098 6.55947 11.4101 6.55592 11.4097 6.55243C11.4097 6.5009 11.4179 6.44936 11.4179 6.39783C11.4179 6.20254 11.4179 6.00725 11.4179 5.81196C11.4173 5.64798 11.468 5.48783 11.563 5.35357C11.6946 5.16831 11.8929 5.04014 12.117 4.99547C12.3412 4.95081 12.5741 4.99306 12.7677 5.11352C12.8933 5.18562 12.997 5.28992 13.0678 5.41546C13.1386 5.54099 13.174 5.68311 13.1702 5.82688C13.1702 5.8662 13.1702 5.90553 13.1702 5.94351C13.1702 11.3131 13.1702 16.6831 13.1702 22.0536C13.1756 22.137 13.172 22.2206 13.1592 22.3032ZM11.4165 12.0124C11.4165 11.6282 11.4165 11.2444 11.4165 10.861C11.4185 10.6346 11.408 10.4082 11.385 10.1829C11.3585 9.93083 11.315 9.68074 11.255 9.43433C11.1098 8.83794 10.8397 8.27841 10.4624 7.79199C10.0924 7.30674 9.60705 6.9196 9.04958 6.665C8.55215 6.44439 8.01807 6.31614 7.47389 6.28662C7.25759 6.27306 7.03992 6.28662 6.82363 6.28662C6.55397 6.29024 6.28548 6.32252 6.02278 6.38291C5.38385 6.51703 4.78642 6.80017 4.28007 7.20883C3.60693 7.74734 3.08426 8.44769 2.76188 9.24311C2.53179 9.81812 2.37586 10.4196 2.2978 11.0333C2.25673 11.3235 2.23894 11.6164 2.22388 11.908C2.20017 12.3956 2.21298 12.8843 2.26221 13.37C2.28986 13.6806 2.33557 13.9895 2.39911 14.2949C2.48811 14.7219 2.62019 15.139 2.79337 15.5399C3.0398 16.1101 3.39651 16.627 3.84337 17.0615C4.27324 17.487 4.80357 17.7993 5.3862 17.9702C5.87917 18.1121 6.39383 18.1654 6.90576 18.1275C7.10153 18.1139 7.29866 18.1031 7.49442 18.0746C7.84561 18.0273 8.19101 17.9446 8.52526 17.8278C9.20473 17.591 9.80433 17.1717 10.257 16.6167C10.511 16.3092 10.727 15.9727 10.9004 15.6145C11.227 14.928 11.4021 14.1804 11.4138 13.4215C11.4247 12.9496 11.4165 12.4803 11.4165 12.0124Z" fill="#FF7869"/>
<path d="M43.7223 12.4943H39.2046C39.1458 12.4943 39.0869 12.4943 39.0267 12.4943C38.9468 12.493 38.8694 12.5219 38.8101 12.575C38.7509 12.6281 38.7143 12.7016 38.7077 12.7805C38.7055 12.813 38.7055 12.8456 38.7077 12.8781C38.7077 13.0802 38.7077 13.285 38.7077 13.483C38.734 14.4732 39.0342 15.4372 39.5756 16.2699C40.0394 16.988 40.7126 17.5494 41.5059 17.8797C41.7421 17.9784 41.988 18.0525 42.2397 18.1008C42.6257 18.1799 43.0187 18.2212 43.4129 18.2242C43.6497 18.2242 43.8865 18.2242 44.122 18.2242C44.286 18.2178 44.4496 18.2029 44.6121 18.1795C45.0783 18.1147 45.5369 18.0043 45.9811 17.8499C46.3898 17.7068 46.7855 17.5294 47.1639 17.3196L47.1981 17.2993C47.2877 17.2477 47.3875 17.2157 47.4906 17.2055C47.5938 17.1954 47.698 17.2073 47.7961 17.2405C47.8942 17.2736 47.984 17.3273 48.0594 17.3978C48.1347 17.4683 48.194 17.5541 48.233 17.6492C48.2925 17.792 48.3038 17.95 48.265 18.0996C48.2263 18.2493 48.1396 18.3824 48.0181 18.4792C47.9718 18.5157 47.9228 18.5488 47.8716 18.5782C47.2058 18.9732 46.4854 19.2702 45.7333 19.4597C45.4215 19.5383 45.1058 19.6004 44.7873 19.6455C44.221 19.724 43.6491 19.7558 43.0775 19.7404C42.9926 19.7404 42.9063 19.7337 42.8215 19.7404C42.6311 19.7356 42.4413 19.7179 42.2533 19.6875C41.9995 19.6551 41.748 19.6066 41.5004 19.5424C40.6058 19.3147 39.7806 18.8743 39.0965 18.2595C38.6141 17.825 38.2087 17.3134 37.8973 16.746C37.5885 16.186 37.3512 15.5901 37.1909 14.9721C37.1023 14.6387 37.0337 14.3004 36.9855 13.959C36.9554 13.7393 36.9294 13.521 36.9089 13.2999C36.8586 12.6963 36.8499 12.0901 36.8829 11.4853C36.8911 11.2968 36.9198 11.1097 36.9417 10.9225C36.9636 10.7354 36.9938 10.5618 37.028 10.38C37.1574 9.70189 37.3736 9.04288 37.6714 8.41899C37.974 7.76869 38.3767 7.16889 38.8651 6.64103C39.6045 5.83852 40.5448 5.24387 41.5908 4.91731C41.848 4.84175 42.1101 4.78331 42.3752 4.74237C42.7448 4.68174 43.1191 4.65406 43.4936 4.65964C43.6579 4.65964 43.8222 4.65964 43.9865 4.67184C44.1507 4.68405 44.2876 4.6949 44.4369 4.7166C44.749 4.75918 45.0571 4.82676 45.3582 4.91867C46.4884 5.26122 47.4567 5.99474 48.0865 6.9855C48.4098 7.4915 48.6613 8.03909 48.834 8.61292C48.9634 9.02928 49.0595 9.45508 49.1215 9.88638C49.1543 10.1115 49.1776 10.338 49.2023 10.5645C49.2378 10.9022 49.2351 11.2426 49.2433 11.5789C49.251 11.6895 49.237 11.8004 49.2023 11.9057C49.1556 12.0457 49.0726 12.171 48.9616 12.2691C48.8506 12.3671 48.7154 12.4345 48.5698 12.4645C48.4995 12.4818 48.4273 12.4909 48.3549 12.4916C48.2426 12.4916 48.1317 12.4916 48.0195 12.4916L43.7223 12.4943ZM43.0994 10.9551H46.8996H47.1159C47.1872 10.9509 47.2544 10.9209 47.3048 10.871C47.3553 10.821 47.3855 10.7544 47.3897 10.6838C47.393 10.586 47.3894 10.4882 47.3788 10.3909C47.3541 10.2173 47.3446 10.0423 47.3185 9.86739C47.272 9.54601 47.2006 9.22864 47.105 8.91806C46.9661 8.45587 46.751 8.01962 46.4684 7.62697C46.0559 7.04815 45.468 6.61447 44.7901 6.38878C44.4027 6.26398 43.9994 6.19412 43.5922 6.18128C43.1913 6.16455 42.79 6.20011 42.3985 6.28706C41.621 6.44919 40.9077 6.83125 40.345 7.38693C40.0058 7.72696 39.7202 8.11555 39.4976 8.53969C39.158 9.18712 38.9225 9.88308 38.7994 10.6024C38.792 10.6437 38.7934 10.686 38.8035 10.7266C38.8135 10.7673 38.832 10.8054 38.8578 10.8386C38.8835 10.8718 38.916 10.8993 38.9531 10.9193C38.9902 10.9394 39.0311 10.9516 39.0732 10.9551C39.1389 10.9551 39.2101 10.9551 39.2704 10.9551H43.0994Z" fill="#FF7869"/>
<path d="M65.5523 14.2695C65.5523 15.792 65.5523 17.315 65.5523 18.8385C65.5565 18.9295 65.5487 19.0207 65.529 19.1097C65.4976 19.2402 65.435 19.3612 65.3463 19.4625C65.2577 19.5637 65.1456 19.6423 65.0197 19.6915C64.8266 19.7715 64.6113 19.7819 64.4112 19.721C64.2111 19.6601 64.0389 19.5316 63.9245 19.3579C63.8448 19.2367 63.8011 19.0957 63.7986 18.9511C63.7986 18.8995 63.7986 18.8466 63.7986 18.7951C63.7986 18.343 63.7986 17.8873 63.7986 17.4281C63.7993 17.3699 63.7947 17.3118 63.7849 17.2545C63.7809 17.2352 63.7716 17.2175 63.7581 17.2031C63.7446 17.1888 63.7273 17.1784 63.7082 17.1731C63.6862 17.166 63.6626 17.1652 63.6401 17.1707C63.6176 17.1763 63.5971 17.1879 63.5809 17.2043C63.5711 17.2132 63.5624 17.2232 63.5549 17.2341L63.5015 17.3155C63.1221 17.8962 62.6308 18.3971 62.0559 18.7897C61.6807 19.0541 61.272 19.2684 60.8402 19.4271C60.5253 19.5394 60.2003 19.622 59.8696 19.6739C59.5643 19.7189 59.2556 19.7379 58.947 19.7309C58.7964 19.7309 58.6444 19.7309 58.4938 19.7187C57.7371 19.6781 57 19.4645 56.3404 19.0948C55.4978 18.6154 54.8796 17.8267 54.6196 16.8991C54.5156 16.5627 54.4603 16.2134 54.4554 15.8617C54.4554 15.6406 54.4471 15.4182 54.4622 15.1985C54.4994 14.413 54.7646 13.6548 55.2261 13.015C55.4889 12.6643 55.8086 12.3591 56.1721 12.1118C56.5739 11.8401 57.0097 11.6212 57.4685 11.4608C57.8392 11.329 58.2189 11.2234 58.6047 11.1448C58.9264 11.0784 59.2495 11.0269 59.5753 10.9835C59.8026 10.9536 60.0298 10.9143 60.2598 10.8817C60.4898 10.8492 60.702 10.8221 60.9224 10.7909L61.6069 10.6892L61.9382 10.6417L62.6979 10.5332L63.3824 10.4396C63.4468 10.4301 63.5125 10.4193 63.5755 10.4044C63.6408 10.3917 63.6997 10.3569 63.7419 10.3059C63.7841 10.2549 63.8071 10.191 63.8068 10.125C63.8068 9.98937 63.8 9.85375 63.7918 9.71813C63.7918 9.63405 63.7781 9.54997 63.7699 9.46588C63.7221 8.91309 63.5853 8.37145 63.3646 7.86152C63.2284 7.55049 63.039 7.26512 62.8047 7.01797C62.4941 6.69644 62.1044 6.46043 61.674 6.33309C61.4606 6.26781 61.2415 6.22241 61.0196 6.19748C60.7926 6.16975 60.5636 6.16113 60.3351 6.17171C60.112 6.18391 59.8902 6.20426 59.6684 6.23409C59.3502 6.27794 59.0355 6.34365 58.7266 6.43074C58.1705 6.58667 57.6355 6.80842 57.1331 7.0912C57.0544 7.13807 56.9683 7.17153 56.8784 7.1902C56.721 7.22177 56.5574 7.20056 56.4134 7.12992C56.2694 7.05929 56.1533 6.94322 56.0832 6.80001C56.0131 6.65679 55.9931 6.49455 56.0263 6.33882C56.0594 6.1831 56.144 6.04272 56.2665 5.9398C56.3174 5.89862 56.3714 5.86144 56.4281 5.82859C57.1042 5.42548 57.8374 5.1247 58.6033 4.93622C58.9282 4.85595 59.2572 4.79347 59.589 4.74907C59.7902 4.72194 59.9997 4.70431 60.1968 4.68804C60.394 4.67176 60.6431 4.66092 60.8663 4.6582H61.0442C61.3003 4.66452 61.5556 4.689 61.8081 4.73144C62.1005 4.77402 62.3886 4.84163 62.6692 4.93351C63.1148 5.07576 63.5318 5.29424 63.9013 5.57905C64.2939 5.88601 64.6199 6.26843 64.8596 6.70333C65.0668 7.08097 65.2229 7.48408 65.3236 7.9022C65.402 8.21803 65.4583 8.53886 65.492 8.86238C65.5368 9.2827 65.5592 9.70506 65.5591 10.1277C65.5591 11.5074 65.5591 12.8871 65.5591 14.2668L65.5523 14.2695ZM63.8013 12.9662C63.8013 12.7451 63.8013 12.5241 63.8013 12.303C63.8049 12.2511 63.8049 12.199 63.8013 12.1471C63.7909 12.0819 63.7578 12.0225 63.7078 11.9789C63.6578 11.9353 63.5941 11.9104 63.5275 11.9084C63.462 11.9093 63.3967 11.9143 63.3318 11.9233C63.2661 11.9301 63.2017 11.9409 63.1374 11.9504L62.7664 12.0006C62.5391 12.0331 62.3119 12.0684 62.0819 12.0996C61.8519 12.1308 61.6137 12.1606 61.3796 12.1918C61.1455 12.223 60.9128 12.261 60.6787 12.2935L59.8409 12.4115C59.477 12.4628 59.1161 12.5325 58.7594 12.6204C58.4793 12.6852 58.2047 12.7713 57.938 12.878C57.6886 12.9781 57.4527 13.1084 57.2357 13.2659C56.8403 13.553 56.5535 13.9632 56.4212 14.4309C56.3391 14.699 56.2931 14.9767 56.2843 15.2568C56.2843 15.3734 56.2843 15.4914 56.2843 15.6081C56.283 15.8293 56.3125 16.0498 56.3719 16.2631C56.5247 16.8701 56.907 17.3959 57.4397 17.7318C57.9093 18.0232 58.4469 18.1895 59.0004 18.2146C59.1769 18.2268 59.3549 18.2146 59.5315 18.2146C59.7944 18.2128 60.0563 18.1809 60.3118 18.1197C61.2032 17.9259 62.0067 17.4499 62.6007 16.7635C62.9602 16.3474 63.2429 15.8718 63.4358 15.3585C63.6697 14.7519 63.7935 14.1091 63.8013 13.4599C63.8027 13.2863 63.8013 13.1276 63.8013 12.9648V12.9662Z" fill="#FF7869"/>
<path d="M26.9773 12.3936C26.9773 14.5156 26.9773 16.6376 26.9773 18.7596C26.9773 18.8179 26.9773 18.8762 26.9773 18.9359C26.9767 19.1233 26.9129 19.3052 26.7961 19.4526C26.6793 19.6 26.5161 19.7045 26.3325 19.7496C26.2225 19.7794 26.1077 19.7873 25.9946 19.7727C25.8816 19.7582 25.7726 19.7215 25.674 19.6648C25.5754 19.6082 25.4892 19.5326 25.4203 19.4427C25.3514 19.3527 25.3013 19.25 25.2729 19.1407C25.2621 19.0962 25.2561 19.0507 25.2551 19.005C25.2551 18.9399 25.2551 18.8694 25.2551 18.8097C25.2487 18.3577 25.2428 17.9088 25.2373 17.4631C25.2373 17.4237 25.2373 17.3844 25.2373 17.3464C25.234 17.3239 25.2238 17.3028 25.2082 17.2861C25.1925 17.2694 25.1721 17.2578 25.1497 17.2528C25.1305 17.2477 25.1103 17.2479 25.0912 17.2534C25.0721 17.2589 25.0549 17.2695 25.0415 17.284C25.0149 17.3125 24.9911 17.3434 24.9703 17.3763C24.9074 17.4685 24.8485 17.5621 24.7842 17.6475C24.428 18.1576 23.9774 18.5962 23.4563 18.9399C22.9655 19.2571 22.4204 19.4828 21.8477 19.6058C21.6172 19.6574 21.3835 19.6936 21.1482 19.7143C20.9387 19.7319 20.7279 19.7333 20.5184 19.7347C20.3414 19.7347 20.1639 19.7301 19.9859 19.7211C19.8422 19.713 19.6971 19.6994 19.5547 19.6777C19.2163 19.631 18.8828 19.5548 18.5581 19.4499C18.0065 19.2718 17.499 18.9807 17.0686 18.5955C16.72 18.2769 16.4276 17.9029 16.2034 17.4888C15.9852 17.0873 15.8157 16.6617 15.6983 16.2208C15.6056 15.8817 15.5357 15.5369 15.4888 15.1887C15.456 14.9433 15.4327 14.6978 15.4094 14.4523C15.3779 14.1146 15.3766 13.7742 15.3766 13.4379C15.3766 10.938 15.3766 8.43853 15.3766 5.93953C15.3736 5.84224 15.3815 5.74492 15.3998 5.64931C15.4392 5.49185 15.5227 5.3486 15.6406 5.23607C15.7586 5.12355 15.9062 5.04631 16.0665 5.01326C16.1923 4.98683 16.3223 4.98781 16.4476 5.01615C16.5728 5.04449 16.6904 5.0995 16.7921 5.17736C16.8945 5.24946 16.9779 5.34487 17.0353 5.45555C17.0927 5.56624 17.1225 5.68896 17.122 5.81341C17.122 5.86494 17.122 5.91783 17.122 5.96937C17.122 8.29297 17.1257 10.617 17.133 12.9415C17.133 13.2928 17.1494 13.644 17.1658 13.9953C17.1754 14.196 17.2 14.4021 17.2261 14.5974C17.2589 14.8429 17.3014 15.0857 17.363 15.3271C17.4374 15.6639 17.5461 15.9924 17.6874 16.3076C17.8504 16.6786 18.08 17.0172 18.365 17.3071C18.6958 17.636 19.1007 17.8824 19.5465 18.0259C19.7899 18.1046 20.0401 18.1609 20.2939 18.194C20.6467 18.2322 21.002 18.2413 21.3562 18.2212C22.1273 18.1575 22.862 17.8687 23.4672 17.3912C23.9451 17.0101 24.3337 16.5307 24.6062 15.9862C24.8496 15.5094 25.0211 15 25.1154 14.474C25.1934 14.038 25.2315 13.5959 25.2291 13.1531C25.2291 10.7969 25.2291 8.44034 25.2291 6.08329C25.2291 6.01141 25.2291 5.93953 25.2291 5.86901C25.2228 5.69817 25.271 5.52971 25.3668 5.38754C25.4627 5.24537 25.6013 5.13672 25.763 5.077C25.9522 4.99447 26.1643 4.97895 26.3637 5.03303C26.5632 5.08711 26.7377 5.2075 26.8582 5.374C26.9432 5.49023 26.991 5.6292 26.995 5.77272C26.995 5.8446 26.995 5.91648 26.995 5.987C26.995 8.12254 26.9923 10.2576 26.9868 12.3923L26.9773 12.3936Z" fill="#FF7869"/>
<path d="M29.3037 12.3939C29.3037 10.2655 29.3037 8.13724 29.3037 6.00893C29.3037 5.94384 29.3037 5.87331 29.3037 5.81364C29.3095 5.62274 29.3802 5.43938 29.5045 5.29337C29.6288 5.14736 29.7992 5.04729 29.9882 5.00942C30.1133 4.98069 30.2433 4.97927 30.3691 5.00527C30.4948 5.03126 30.6134 5.08405 30.7165 5.15996C30.8224 5.23287 30.909 5.32996 30.9691 5.44303C31.0291 5.55609 31.0608 5.68182 31.0615 5.80957C31.0615 5.86789 31.0615 5.92621 31.0615 5.98588C31.0615 6.59797 31.0615 7.20961 31.0615 7.8208C31.0615 7.88589 31.0615 7.95642 31.0711 8.01473C31.0723 8.02447 31.077 8.03346 31.0842 8.04015C31.0915 8.04683 31.1009 8.0508 31.1108 8.05135C31.1205 8.05324 31.1307 8.05186 31.1396 8.04745C31.1485 8.04303 31.1557 8.03582 31.16 8.02694C31.1833 7.97405 31.2093 7.92116 31.2285 7.86555C31.3127 7.6259 31.411 7.39133 31.5228 7.16305C31.7059 6.78079 31.9358 6.42232 32.2073 6.09573C32.601 5.6209 33.1031 5.24575 33.6721 5.00129C33.9676 4.87462 34.2796 4.78971 34.5989 4.74904C34.8209 4.72193 35.0449 4.71376 35.2683 4.72462L35.6229 4.74225C35.7214 4.74649 35.8188 4.76523 35.9117 4.79786C36.0809 4.85501 36.228 4.96264 36.3329 5.10596C36.4378 5.24928 36.4953 5.42127 36.4976 5.59829C36.4998 5.7753 36.4467 5.94867 36.3455 6.09457C36.2442 6.24046 36.0999 6.35173 35.9323 6.41308C35.8024 6.46605 35.6605 6.48338 35.5216 6.46326C35.3657 6.44042 35.2082 6.42954 35.0507 6.43071C34.9713 6.43071 34.8932 6.43071 34.8138 6.43071C34.5377 6.42849 34.2634 6.4744 34.0034 6.56632C33.3835 6.77525 32.8381 7.15777 32.4332 7.66755C32.1854 7.98003 31.9776 8.32167 31.8144 8.68469C31.5848 9.19809 31.4104 9.73403 31.2942 10.2836C31.234 10.5549 31.1888 10.8261 31.1491 11.1095C31.1244 11.2831 31.1121 11.4581 31.0943 11.633C31.0943 11.6724 31.0943 11.7117 31.0847 11.7497C31.065 11.8917 31.0563 12.0349 31.0587 12.1782C31.0587 12.5489 31.0587 12.9201 31.0587 13.2917C31.0587 15.1406 31.0587 16.9891 31.0587 18.8371C31.0628 18.9475 31.0513 19.058 31.0245 19.1653C30.9784 19.3222 30.8872 19.4624 30.762 19.5689C30.6368 19.6753 30.483 19.7434 30.3195 19.7647C30.1494 19.7908 29.9754 19.7691 29.8171 19.7023C29.6979 19.6538 29.592 19.5782 29.5078 19.4816C29.4236 19.385 29.3636 19.2701 29.3325 19.1463C29.3194 19.0962 29.3116 19.0448 29.3092 18.9931C29.3092 18.9158 29.3092 18.8371 29.3092 18.7584C29.3092 16.6365 29.3092 14.5145 29.3092 12.3925L29.3037 12.3939Z" fill="#FF7869"/>
<path d="M67.8182 12.3668C67.8182 10.2457 67.8182 8.12422 67.8182 6.00224C67.8182 5.93714 67.8182 5.86662 67.8182 5.80695C67.8172 5.6826 67.8514 5.56045 67.9168 5.45434C67.9988 5.31494 68.1179 5.20048 68.261 5.12339C68.404 5.0463 68.5657 5.00953 68.7284 5.01708C68.8911 5.02463 69.0486 5.07621 69.1838 5.16621C69.319 5.25621 69.4267 5.38119 69.4952 5.52758C69.5403 5.62901 69.565 5.73819 69.5678 5.84899C69.5678 5.90053 69.5678 5.95342 69.5678 6.00495C69.5678 10.267 69.5678 14.5295 69.5678 18.7924C69.5739 18.8965 69.5661 19.001 69.5445 19.103C69.5121 19.2403 69.4448 19.3671 69.3489 19.4713C69.2531 19.5755 69.1319 19.6537 68.9969 19.6984C68.8519 19.7543 68.6942 19.7703 68.5407 19.7447C68.3872 19.7192 68.2436 19.653 68.1249 19.5533C68.0273 19.4802 67.9484 19.3854 67.8947 19.2766C67.8409 19.1677 67.8138 19.0479 67.8155 18.9267C67.8155 18.8874 67.8155 18.848 67.8155 18.8101C67.8155 16.6628 67.8155 14.5155 67.8155 12.3682L67.8182 12.3668Z" fill="#FF7869"/>
<path d="M16.6122 22.0752C16.6121 22.1809 16.5908 22.2855 16.5497 22.383C16.5086 22.4805 16.4484 22.569 16.3726 22.6434C16.3275 22.6909 16.2809 22.737 16.2357 22.779L13.8893 25.1253C13.8524 25.1619 13.8168 25.1998 13.7771 25.2351C13.6201 25.3765 13.4161 25.4557 13.2039 25.4574C12.9918 25.4592 12.7864 25.3834 12.6271 25.2446C12.5778 25.2026 12.5313 25.1551 12.4902 25.109L11.7003 24.3197L11.6456 24.2641C11.5227 24.135 11.447 23.9688 11.4306 23.7921C11.4003 23.5826 11.4414 23.3691 11.5476 23.1854C11.6537 23.0018 11.8187 22.8585 12.0165 22.7784C12.2142 22.6983 12.4333 22.686 12.6389 22.7433C12.8446 22.8007 13.025 22.9245 13.1514 23.095C13.1706 23.1208 13.187 23.1493 13.2076 23.1751C13.2269 23.1974 13.2536 23.2122 13.2829 23.2169C13.3122 23.2216 13.3423 23.2159 13.3677 23.2008C13.389 23.186 13.4091 23.1697 13.428 23.152C13.4704 23.1113 13.5115 23.0693 13.5539 23.0286L15.0392 21.5476C15.0858 21.5015 15.131 21.4541 15.1761 21.412C15.3327 21.2692 15.5384 21.1911 15.7511 21.1937C15.9258 21.1922 16.0967 21.2432 16.2415 21.3401C16.3862 21.437 16.4978 21.5751 16.5615 21.7361C16.6025 21.8443 16.6198 21.9599 16.6122 22.0752Z" fill="#FF7869"/>
<path d="M51.3912 19.736C51.1565 19.7406 50.9248 19.6829 50.7202 19.5689C50.5156 19.4549 50.3455 19.2888 50.2276 19.0877C50.1154 18.9042 50.054 18.6946 50.0496 18.4801C50.0306 18.2257 50.0852 17.9712 50.207 17.7464C50.2893 17.5903 50.4033 17.4527 50.5418 17.3424C50.6804 17.232 50.8404 17.1511 51.012 17.105C51.3498 17.01 51.7115 17.0473 52.0224 17.2091C52.3332 17.3709 52.5694 17.6448 52.6821 17.9743C52.7402 18.1523 52.7603 18.3404 52.7411 18.5265C52.7218 18.7126 52.6636 18.8927 52.5703 19.0554C52.4769 19.218 52.3504 19.3596 52.1988 19.4712C52.0472 19.5828 51.8738 19.6619 51.6896 19.7034C51.5909 19.7198 51.4912 19.7307 51.3912 19.736Z" fill="#FF7869"/>
<path d="M67.3444 1.79737C67.3385 1.50072 67.4346 1.2109 67.617 0.975536C67.7993 0.740168 68.0571 0.573251 68.3479 0.50221C68.4892 0.473673 68.6337 0.46319 68.7777 0.471018C69.0479 0.486093 69.3071 0.582076 69.5209 0.746266C69.7348 0.910455 69.8934 1.13511 69.9756 1.39051C70.0503 1.60689 70.0657 1.83902 70.0202 2.06322C69.9748 2.28742 69.8701 2.49566 69.7168 2.66668C69.5464 2.87578 69.3127 3.02507 69.0501 3.09253C68.872 3.14105 68.6859 3.15442 68.5025 3.13186C68.3197 3.10986 68.1436 3.05024 67.9854 2.95682C67.8272 2.8634 67.6905 2.73824 67.584 2.58938C67.4144 2.36062 67.3297 2.08084 67.3444 1.79737Z" fill="#FF7869"/>
</g>
<defs>
<clipPath id="clip0_7183_4584">
<rect width="70" height="25" fill="white" transform="translate(0.230469 0.281006)"/>
</clipPath>
</defs>
</svg>
